<?xml version="1.0" standalone="no"?>
<!DOCTYPE svg PUBLIC "-//W3C//DTD SVG 20010904//EN"
 "http://www.w3.org/TR/2001/REC-SVG-20010904/DTD/svg10.dtd">
<svg version="1.0" xmlns="http://www.w3.org/2000/svg"
 width="512.000000pt" height="512.000000pt" viewBox="0 0 512.000000 512.000000"
 preserveAspectRatio="xMidYMid meet">
<metadata>
Created by potrace 1.11, written by Peter Selinger 2001-2013
</metadata>
<g transform="translate(0.000000,512.000000) scale(0.100000,-0.100000)"
fill="#000000" stroke="none">
<path d="M2378 4975 c-2 -2 -33 -6 -68 -9 -144 -12 -373 -61 -515 -110 -5 -2
-13 -4 -18 -5 -4 0 -21 -8 -37 -16 -16 -8 -32 -15 -35 -15 -3 0 -21 -7 -41
-15 -20 -8 -38 -15 -40 -15 -11 0 -120 -56 -126 -65 -4 -5 -8 -7 -8 -2 0 8
-113 -53 -118 -65 -2 -4 -9 -8 -16 -8 -7 0 -32 -13 -54 -30 -23 -16 -44 -30
-47 -30 -6 0 -152 -106 -171 -124 -6 -6 -33 -29 -60 -51 -210 -173 -437 -461
-567 -720 -49 -97 -132 -294 -142 -335 -2 -8 -15 -54 -29 -103 -24 -84 -50
-208 -61 -292 -2 -22 -7 -51 -11 -65 -3 -14 -7 -115 -9 -225 -4 -245 10 -372
65 -615 42 -187 150 -445 263 -633 23 -38 50 -84 61 -101 10 -17 21 -33 25
-36 4 -3 18 -21 31 -40 81 -118 274 -326 385 -415 27 -22 59 -48 70 -58 11
-10 74 -55 140 -99 109 -73 146 -108 115 -108 -8 0 -7 -6 1 -22 10 -18 9 -20
-6 -14 -15 5 -16 4 -5 -9 10 -12 10 -15 0 -15 -7 0 -10 -7 -7 -15 4 -8 2 -17
-3 -20 -6 -4 -10 -17 -10 -31 0 -14 -3 -23 -8 -20 -4 2 -7 -10 -7 -27 0 -18
-4 -31 -10 -30 -5 1 -11 -19 -12 -44 -1 -25 -7 -51 -14 -59 -9 -11 -8 -14 2
-14 11 0 12 -2 1 -9 -21 -13 45 -39 96 -37 32 1 41 -2 37 -13 -4 -11 -3 -12
10 -1 8 7 22 10 30 6 8 -3 15 -2 15 2 0 14 39 8 45 -6 4 -10 0 -12 -12 -8 -14
6 -15 4 -6 -5 12 -12 37 -3 28 11 -3 5 -1 11 4 15 5 3 14 -3 20 -12 6 -10 11
-12 11 -5 0 7 11 12 28 11 15 -1 35 2 45 6 10 4 17 3 17 -5 0 -6 -6 -8 -12 -5
-7 4 -2 -3 11 -14 13 -12 21 -24 17 -28 -3 -4 -17 4 -31 17 -14 13 -25 20 -25
15 0 -8 39 -45 48 -45 3 0 14 8 25 17 18 17 19 17 16 -1 -2 -11 3 -21 11 -23
12 -4 12 -3 1 5 -8 6 -10 12 -3 16 6 4 15 -1 20 -10 6 -11 11 -13 16 -5 4 6
12 11 18 11 6 0 5 -7 -3 -17 -13 -16 -12 -17 3 -4 16 12 22 9 19 -11 0 -4 7
-4 16 -1 11 4 13 8 5 11 -7 2 -9 8 -6 14 4 5 17 0 32 -14 15 -13 21 -16 14 -6
-9 11 -10 18 -2 23 5 3 10 10 10 15 0 10 -50 8 -68 -3 -7 -5 -12 -3 -12 4 0
10 -3 10 -12 1 -17 -17 -33 -15 -18 2 7 9 24 13 42 11 22 -3 28 0 24 10 -3 10
0 12 11 8 11 -5 14 -3 8 6 -6 10 -3 11 13 2 11 -6 27 -9 34 -8 7 2 10 2 6 0
-4 -2 1 -13 10 -23 12 -14 19 -17 29 -8 9 7 13 7 13 -1 0 -7 6 -9 13 -5 6 4 4
-1 -5 -11 -14 -15 -20 -16 -32 -5 -13 10 -16 10 -16 -3 0 -11 8 -15 30 -12 17
2 30 0 30 -5 0 -6 5 -10 11 -10 8 0 8 5 -1 15 -7 8 -8 15 -2 15 18 0 33 -25
21 -37 -8 -8 -7 -13 0 -18 6 -3 11 -3 10 2 -3 20 2 27 12 13 9 -13 10 -13 8 0
-3 16 21 70 30 70 3 0 13 -5 21 -11 13 -8 12 -9 -4 -7 -10 2 -21 -2 -23 -8 -2
-6 10 -10 27 -10 16 0 30 3 30 6 0 4 6 7 14 7 8 0 12 -6 9 -13 -2 -7 -13 -11
-24 -9 -10 2 -21 0 -24 -6 -4 -5 1 -10 9 -10 9 -1 25 -2 35 -3 11 0 23 -4 27
-8 4 -5 12 -8 18 -8 6 0 4 5 -4 10 -12 8 -12 10 5 10 17 0 17 2 5 10 -20 13
-33 12 -24 -2 4 -7 3 -8 -4 -4 -16 10 -15 14 9 27 15 8 19 8 15 0 -4 -6 -2
-11 3 -11 6 0 11 5 11 10 0 6 5 10 11 10 6 0 7 -5 2 -12 -11 -18 -14 -48 -5
-48 4 0 14 4 22 10 9 5 19 5 27 -2 7 -6 13 -7 13 -2 0 4 7 -1 16 -12 14 -18
15 -18 4 4 -6 12 -15 20 -20 17 -6 -3 -7 2 -4 12 5 15 4 16 -5 3 -7 -9 -11
-10 -11 -3 0 18 19 26 26 10 7 -19 82 -17 94 3 9 13 10 13 10 -1 0 -9 -11 -21
-25 -27 -14 -6 -25 -17 -25 -24 0 -10 3 -9 9 1 5 8 16 11 26 8 9 -4 14 -3 12
1 -3 4 4 15 13 25 13 14 20 15 26 6 4 -8 3 -10 -4 -5 -7 4 -12 1 -12 -8 0 -8
-7 -22 -16 -30 -8 -9 -10 -16 -4 -16 6 0 13 7 16 15 4 8 11 12 18 8 6 -3 8 -3
4 1 -3 4 2 16 13 27 22 22 37 26 19 5 -9 -12 -8 -15 9 -13 12 1 21 8 21 17 1
11 3 10 12 -4 11 -19 11 -19 26 0 14 17 14 18 8 1 -4 -13 -2 -17 6 -14 7 2 12
10 10 16 -1 7 2 10 8 6 8 -5 7 -11 -1 -21 -9 -11 -9 -14 1 -14 10 0 10 -3 1
-14 -9 -11 -9 -16 0 -22 7 -4 9 -3 5 4 -3 6 -2 13 4 17 6 4 8 10 5 15 -3 4 2
13 10 20 8 7 12 17 8 24 -4 6 2 4 12 -4 17 -14 18 -13 12 3 -4 11 -3 16 3 12
6 -4 9 -14 8 -22 -2 -9 3 -18 10 -20 6 -3 10 1 9 9 -2 7 -2 10 0 5 3 -4 10 -4
15 -1 7 4 8 2 4 -4 -10 -17 6 -15 34 5 14 10 27 16 30 14 3 -1 11 -8 18 -13
10 -9 12 -6 8 16 -3 14 -1 24 3 21 13 -7 7 -50 -6 -51 -25 -3 -26 -4 -10 -22
10 -10 14 -22 10 -25 -3 -4 -1 -7 5 -7 15 0 16 17 1 26 -8 4 -7 9 2 15 20 12
29 11 25 -3 -1 -7 -1 -10 1 -5 11 19 23 5 13 -15 -10 -21 -10 -22 4 -5 8 10
17 18 20 17 12 -2 41 19 35 25 -4 3 -14 -1 -23 -10 -14 -15 -20 -12 -17 7 0 4
-5 5 -13 2 -8 -3 -17 -1 -21 5 -3 7 0 8 9 5 9 -3 16 -1 16 5 0 6 5 11 11 11 5
0 7 -4 4 -10 -3 -5 1 -10 10 -10 9 0 13 5 10 10 -3 6 -2 10 3 10 6 0 12 -7 16
-15 3 -8 10 -15 16 -15 6 0 8 6 4 13 -5 8 -2 7 10 -2 13 -11 14 -16 4 -22 -6
-4 -16 -5 -20 -3 -4 3 -8 1 -8 -5 0 -15 39 -9 45 7 8 20 24 4 20 -20 -3 -11
-1 -18 2 -14 4 4 8 15 10 26 3 18 -7 25 -30 21 -5 -1 -5 4 -1 10 4 8 3 9 -4 5
-7 -4 -12 -2 -12 3 0 14 17 14 25 1 7 -12 25 -4 25 11 0 6 -6 7 -12 3 -7 -4
-9 -3 -5 1 4 5 14 10 22 11 12 2 12 -2 5 -17 -8 -13 -7 -19 0 -19 6 0 8 -5 5
-11 -4 -6 3 -5 14 3 14 8 24 9 29 3 11 -16 32 -16 26 0 -3 8 -9 13 -12 12 -4
-1 -8 2 -9 8 -1 5 -10 13 -20 17 -15 7 -14 8 5 4 12 -2 29 2 37 11 9 8 15 10
15 3 0 -6 -7 -13 -15 -16 -8 -4 -12 -10 -9 -15 3 -5 17 0 31 11 14 11 31 20
37 20 6 -1 0 -7 -13 -14 -13 -7 -19 -16 -14 -19 17 -10 52 22 48 43 -2 11 0
22 4 24 10 7 8 -35 -2 -52 -5 -6 -4 -12 1 -12 14 0 33 26 25 33 -3 4 -1 7 6 7
8 0 11 -6 7 -16 -4 -10 -1 -14 6 -11 7 2 13 12 13 23 0 11 8 20 20 21 15 2 16
1 5 -5 -17 -8 -23 -42 -8 -42 5 0 6 -4 3 -10 -3 -5 -11 -10 -16 -10 -6 0 -7 5
-3 11 5 8 1 8 -13 0 -11 -6 -23 -8 -26 -5 -3 3 -10 -3 -16 -13 -7 -15 -7 -20
4 -20 8 0 11 7 7 16 -4 12 0 11 19 -4 21 -18 22 -18 9 -1 -14 17 -13 18 7 12
12 -4 24 -2 28 4 3 6 11 7 17 4 7 -5 4 -12 -7 -21 -11 -7 -14 -13 -8 -13 6 0
16 7 23 15 7 8 16 13 20 10 5 -3 10 0 12 6 3 9 10 9 26 0 12 -7 22 -8 21 -4
-3 20 2 34 11 28 5 -3 7 -12 4 -19 -3 -8 -1 -17 5 -21 7 -4 8 0 4 11 -5 13 -3
15 7 9 8 -5 11 -4 6 3 -3 6 -2 13 3 16 11 7 23 -22 14 -36 -3 -7 -1 -8 6 -4 7
5 9 17 5 29 -5 18 -4 20 6 10 9 -8 19 -9 32 -2 12 6 18 6 18 0 0 -14 32 -2 47
17 7 8 19 12 29 8 13 -5 14 -9 4 -21 -15 -18 -4 -20 14 -3 16 17 -15 50 -35
37 -18 -11 -32 -12 -25 -1 6 10 -60 10 -69 0 -4 -4 -13 -4 -21 -1 -8 3 -16 -1
-19 -9 -6 -16 -41 -18 -62 -5 -7 5 -13 4 -13 -2 0 -5 6 -11 13 -14 7 -2 8 -8
3 -13 -5 -5 -11 -4 -13 3 -3 9 -11 9 -31 -3 -25 -15 -25 -15 -8 0 11 9 15 16
10 16 -6 0 -15 -5 -22 -12 -7 -7 -12 -10 -13 -8 0 3 -2 13 -4 22 -2 10 1 18 6
18 5 0 9 -4 9 -8 0 -13 39 -9 44 5 3 8 -2 12 -16 10 -11 -1 -22 4 -24 11 -1 7
0 8 3 2 8 -16 23 -12 23 8 1 16 1 16 11 0 5 -10 15 -18 20 -18 6 0 7 5 3 12
-4 7 -3 8 4 4 6 -4 8 -14 5 -24 -5 -13 -3 -14 7 -5 7 6 20 9 29 6 9 -3 6 4 -9
17 -14 12 -19 19 -12 15 26 -13 64 -16 56 -4 -5 8 -3 9 6 4 17 -10 98 -12 113
-3 7 4 19 -2 29 -15 14 -18 19 -20 30 -9 11 11 10 12 -4 7 -11 -4 -18 -2 -18
5 0 6 5 8 10 5 6 -3 10 0 10 7 0 10 2 10 9 -1 6 -10 13 -11 29 -2 25 13 32 14
32 2 0 -5 -9 -11 -21 -14 -14 -4 -18 -10 -13 -18 5 -9 2 -10 -10 -6 -9 4 -15
3 -11 -2 3 -5 0 -11 -7 -13 -6 -2 -12 -12 -14 -21 -1 -9 2 -15 7 -11 5 3 6 10
3 16 -5 8 -1 9 10 5 10 -4 15 -3 11 3 -3 6 0 11 7 11 7 1 20 2 28 3 8 0 15 8
16 16 3 52 4 54 15 43 6 -6 18 -9 27 -6 10 5 13 2 8 -6 -6 -9 -3 -9 13 1 12 7
17 14 11 16 -6 2 -7 8 -4 14 4 5 -5 2 -20 -7 -15 -10 -26 -13 -26 -6 0 6 5 11
10 11 6 0 10 7 10 15 0 8 6 12 14 9 18 -7 41 32 26 41 -6 4 -10 3 -9 -2 3 -20
-2 -34 -11 -28 -6 4 -7 13 -1 23 4 9 6 23 4 30 -3 6 1 12 7 12 7 0 10 6 7 14
-6 16 16 40 26 29 4 -3 7 -1 7 6 0 8 -7 10 -21 6 -19 -6 -19 -5 -7 17 7 12 18
26 23 30 6 5 5 8 -3 8 -7 0 -10 5 -7 10 4 6 12 7 18 3 8 -5 8 -2 0 9 -7 8 -11
17 -9 19 2 2 6 18 9 34 8 49 26 85 44 92 10 4 32 17 49 30 17 13 34 23 37 23
7 0 106 68 117 80 3 3 30 24 60 47 219 168 421 401 587 678 70 116 191 404
219 517 2 10 6 26 9 35 15 51 45 194 51 238 3 28 7 52 9 55 2 3 7 46 11 95 17
191 6 505 -21 615 -4 14 -7 32 -7 40 0 8 -9 51 -20 95 -11 44 -22 89 -24 99
-2 11 -14 49 -26 85 -12 36 -23 68 -23 71 -1 3 -5 12 -8 20 -3 8 -16 42 -28
75 -47 130 -238 469 -302 537 -7 7 -32 40 -57 72 -122 161 -407 413 -580 511
-10 6 -25 17 -34 24 -9 7 -16 10 -16 6 0 -5 -8 -1 -17 7 -18 16 -133 75 -228
118 -54 25 -191 77 -213 81 -4 1 -18 6 -32 11 -14 5 -33 12 -42 14 -28 6 -49
12 -108 28 -59 15 -144 31 -225 42 -27 3 -59 8 -70 11 -24 6 -422 13 -427 8z
m-960 -4407 c6 -6 17 -13 24 -14 43 -7 88 -59 51 -59 -6 0 -15 -4 -20 -9 -4
-5 -3 -6 4 -2 6 3 14 2 18 -4 3 -5 2 -10 -3 -10 -5 0 -9 -15 -9 -32 1 -25 -3
-33 -16 -32 -9 1 -17 -2 -17 -7 0 -5 8 -9 18 -9 14 0 15 -2 2 -9 -8 -6 -18 -7
-22 -5 -14 9 -9 -4 8 -21 9 -9 25 -13 38 -10 20 5 20 5 -1 -6 -27 -14 -29 -25
-8 -33 10 -3 15 1 16 12 1 16 2 16 6 -1 2 -9 9 -15 14 -12 5 4 9 1 9 -5 0 -6
5 -8 10 -5 6 4 7 12 4 18 -4 7 -4 9 1 5 4 -4 13 0 20 9 14 19 61 27 62 10 0
-7 2 -18 4 -26 2 -7 -2 -16 -9 -18 -7 -3 -12 -1 -11 4 4 20 -2 29 -21 30 -11
1 -20 -3 -20 -8 0 -6 4 -8 8 -5 4 2 14 1 22 -5 13 -7 13 -9 0 -10 -8 -1 -19
-1 -23 0 -5 1 -6 -3 -3 -8 7 -10 -46 -7 -64 4 -9 6 -9 3 -1 -14 7 -12 9 -26 6
-31 -3 -5 -1 -12 5 -15 6 -4 10 -3 9 2 -4 22 3 28 32 29 22 1 28 -1 20 -9 -6
-6 -11 -16 -11 -22 0 -5 5 -2 11 8 6 9 15 14 21 11 7 -5 8 -2 3 6 -5 8 -3 11
6 8 8 -3 13 -14 11 -24 -2 -11 1 -15 5 -9 4 6 16 11 26 10 9 0 17 4 16 9 0 5
5 13 13 18 9 7 7 8 -7 3 -11 -3 -16 -3 -12 1 4 4 -1 17 -10 28 -14 16 -14 18
-3 11 9 -6 7 -2 -3 8 -11 9 -14 17 -9 17 6 0 13 -4 17 -10 3 -5 13 -6 21 -3
13 5 13 7 2 14 -9 6 -9 9 -1 9 6 0 18 -9 26 -21 9 -13 17 -16 22 -10 3 6 11
11 18 11 6 0 -2 -10 -19 -22 -35 -27 -48 -67 -15 -46 11 6 18 15 15 19 -5 9
25 33 33 25 3 -3 1 -6 -6 -6 -7 0 -10 -4 -6 -9 3 -5 1 -12 -5 -16 -5 -3 -10
-11 -10 -17 0 -6 9 -3 20 7 11 10 23 15 27 12 3 -4 1 -7 -7 -7 -10 0 -10 -3 0
-15 7 -9 10 -18 6 -22 -3 -3 -6 -1 -6 7 0 10 -3 10 -16 -1 -18 -15 -47 -22
-39 -9 3 5 1 11 -5 15 -5 3 -10 -1 -10 -9 0 -9 -4 -16 -10 -16 -5 0 -7 8 -4
18 5 15 4 15 -8 2 -11 -13 -40 -15 -168 -14 -204 2 -197 1 -203 24 -3 11 -1
20 5 20 5 0 6 5 3 10 -6 10 5 13 35 11 10 0 11 2 3 5 -10 4 -9 12 3 32 12 19
12 22 2 10 -8 -10 -18 -14 -22 -10 -4 4 -6 1 -4 -7 2 -7 -3 -16 -10 -18 -16
-6 -4 28 16 45 10 8 12 12 4 12 -10 0 -10 5 -2 20 6 11 8 25 5 30 -3 6 -3 10
2 10 4 0 9 10 10 23 4 44 15 87 22 82 4 -2 7 6 6 18 -4 37 10 48 33 25z m2265
-18 c-3 -11 -9 -18 -13 -15 -5 3 -6 -4 -3 -15 3 -11 -1 -28 -8 -37 -12 -15
-12 -16 1 -8 13 8 13 6 2 -8 -8 -9 -11 -21 -7 -27 3 -5 1 -10 -4 -10 -6 0 -10
-3 -8 -7 1 -5 -2 -9 -8 -9 -5 -1 -9 2 -7 8 1 5 -2 6 -8 3 -8 -5 -7 -12 3 -23
22 -26 7 -68 -24 -64 -22 2 -21 1 6 -12 l30 -14 -27 -1 c-16 -1 -28 -5 -28
-11 0 -5 7 -7 15 -4 8 4 15 2 15 -4 0 -5 -7 -12 -15 -16 -16 -6 -35 22 -28 42
3 6 0 12 -7 12 -6 0 -8 -4 -5 -10 3 -5 2 -10 -4 -10 -15 0 -23 18 -11 25 11 7
-5 44 -24 57 -7 5 -6 8 3 8 11 0 11 3 0 18 -13 15 -12 16 3 4 11 -9 18 -10 23
-2 3 5 0 10 -7 10 -8 0 -6 5 5 11 13 7 22 7 31 0 9 -8 13 -7 13 4 0 8 -3 12
-7 10 -4 -3 -16 5 -26 18 -17 19 -17 20 -1 8 15 -12 20 -12 30 -1 9 10 9 11 0
6 -8 -4 -11 1 -10 14 1 11 6 20 13 20 6 0 17 7 24 15 7 9 15 13 18 11 2 -3 14
1 26 9 28 20 35 19 29 -5z m-1993 -111 c8 -4 14 -13 12 -20 -2 -9 0 -10 10 -2
9 8 17 7 28 -5 13 -14 12 -15 -2 -9 -14 5 -16 2 -8 -17 12 -33 -2 -51 -29 -37
-24 13 -45 6 -34 -12 3 -6 -7 -1 -24 11 -33 24 -48 28 -38 12 3 -5 1 -10 -4
-10 -6 0 -11 5 -11 12 0 6 -12 1 -27 -13 l-28 -24 24 27 c12 14 20 31 17 37
-4 5 -1 13 5 16 5 4 8 13 5 21 -3 7 -1 16 5 19 5 4 6 11 3 17 -4 7 -2 8 4 4 7
-4 12 -3 12 3 0 6 15 3 33 -6 17 -9 39 -20 47 -24z m1700 -24 c0 -2 -9 -9 -19
-15 -14 -7 -22 -7 -27 2 -4 6 -3 8 2 5 6 -3 16 -2 24 4 17 10 20 11 20 4z
m-65 -15 c-3 -5 -1 -10 5 -10 6 0 8 -11 6 -26 -3 -15 -1 -36 5 -46 6 -11 8
-22 5 -25 -3 -3 -10 7 -16 23 -10 26 -13 27 -21 12 -6 -10 -15 -18 -21 -18 -6
0 0 10 13 23 25 23 29 34 17 53 -4 6 -5 14 -1 18 10 9 15 7 8 -4z m-20 -19 c3
-5 -1 -16 -9 -24 -8 -8 -12 -18 -8 -21 3 -4 -2 -4 -11 0 -16 6 -16 8 4 22 22
15 22 16 3 23 -16 6 -16 8 -2 8 9 1 19 -3 23 -8z m70 -1 c-3 -5 -1 -10 5 -10
6 0 9 -4 6 -9 -4 -5 0 -12 6 -14 10 -4 10 -6 0 -6 -7 -1 -15 6 -18 14 -4 8
-10 12 -15 9 -5 -3 -9 -1 -9 5 0 5 6 12 13 14 18 8 19 8 12 -3z m-119 -22 c-9
-5 -22 -7 -29 -4 -7 2 -4 5 6 5 10 1 15 5 12 11 -4 6 1 7 11 3 15 -6 15 -7 0
-15z m273 -24 c-7 -8 -7 -14 1 -19 6 -3 7 -11 4 -17 -5 -7 -1 -9 9 -5 11 4 18
-1 22 -14 5 -15 12 -18 28 -13 l22 6 -22 -21 c-23 -22 -39 -28 -28 -11 3 6 1
10 -4 10 -6 0 -11 -6 -11 -13 0 -10 -19 -13 -69 -12 -77 0 -88 5 -73 32 9 14
6 21 -11 31 -19 12 -19 13 -2 7 33 -11 39 -10 40 2 0 6 3 14 7 18 3 4 5 0 4
-9 -1 -8 -5 -19 -9 -22 -10 -11 -8 -26 2 -19 5 3 17 -5 26 -17 l17 -23 -8 25
c-6 21 -5 23 8 13 8 -7 19 -9 23 -5 5 4 5 -1 2 -11 -5 -14 -3 -16 12 -8 10 6
24 17 31 26 11 13 10 15 -3 10 -8 -4 -18 -1 -22 5 -6 9 -10 9 -16 -1 -6 -10
-9 -8 -9 8 0 17 -4 21 -17 16 -14 -5 -12 -2 4 17 12 12 20 27 17 32 -3 4 -2
13 2 20 5 8 11 5 20 -7 10 -13 11 -22 3 -31z m-160 -17 c0 -21 -1 -21 -9 -2
-12 28 -12 37 0 30 6 -3 10 -16 9 -28z m121 29 c0 -3 -4 -8 -10 -11 -5 -3 -10
-1 -10 4 0 6 5 11 10 11 6 0 10 -2 10 -4z m-245 -36 c3 -6 -1 -7 -9 -4 -18 7
-21 14 -7 14 6 0 13 -4 16 -10z m-1440 -9 c3 -5 2 -12 -3 -15 -5 -3 -9 1 -9 9
0 17 3 19 12 6z m1521 -37 c-7 -18 -32 -13 -28 5 2 9 -9 11 -34 7 -20 -4 -39
-8 -43 -10 -4 -3 -7 4 -7 14 0 10 5 16 11 12 5 -4 26 -7 45 -7 23 0 34 -4 33
-12 -2 -7 2 -13 8 -13 7 0 9 10 5 28 -5 22 -4 24 5 9 6 -10 8 -25 5 -33z
m-1678 23 c-1 -2 3 -11 10 -20 11 -13 11 -15 0 -13 -29 4 -40 17 -27 32 10 12
27 14 17 1z m-38 -1 c0 -3 -4 -8 -10 -11 -5 -3 -10 -1 -10 4 0 6 5 11 10 11 6
0 10 -2 10 -4z m300 -5 c0 -6 -4 -12 -8 -15 -5 -3 -9 1 -9 9 0 8 4 15 9 15 4
0 8 -4 8 -9z m1490 -15 c0 -2 -12 -2 -26 0 -16 1 -24 -2 -21 -9 2 -7 11 -11
21 -9 9 2 16 -3 16 -11 0 -9 -9 -13 -26 -11 -36 4 -39 10 -20 39 14 21 20 24
36 15 11 -6 20 -12 20 -14z m94 8 c5 -13 4 -14 -7 -6 -8 7 -17 9 -20 5 -4 -3
-7 -1 -7 5 0 18 27 14 34 -4z m-1689 -25 c-6 -32 -12 -34 -12 -4 0 14 3 25 8
25 4 0 6 -10 4 -21z m1370 11 c-3 -5 -12 -10 -18 -10 -7 0 -6 4 3 10 19 12 23
12 15 0z m355 0 c0 -5 -2 -10 -4 -10 -3 0 -8 5 -11 10 -3 6 -1 10 4 10 6 0 11
-4 11 -10z m-239 -22 c11 -21 11 -22 -4 -9 -10 7 -17 17 -17 22 0 15 9 10 21
-13z m-1447 -4 c5 -14 4 -15 -9 -4 -17 14 -19 20 -6 20 5 0 12 -7 15 -16z m46
-10 c0 -2 -9 0 -20 6 -11 6 -20 13 -20 16 0 2 9 0 20 -6 11 -6 20 -13 20 -16z
m1200 16 c0 -5 -5 -10 -11 -10 -5 0 -7 5 -4 10 3 6 8 10 11 10 2 0 4 -4 4 -10z
m124 -2 c-3 -4 -9 -8 -15 -8 -5 0 -9 4 -9 8 0 5 7 9 15 9 8 0 12 -4 9 -9z
m-1434 -44 c-3 -5 -9 -8 -14 -6 -5 2 -16 -4 -26 -13 -9 -8 -19 -12 -23 -9 -3
4 -17 8 -29 9 -38 4 -39 5 -34 14 3 5 26 8 51 6 25 -1 45 1 45 5 0 5 8 7 18 6
9 -2 15 -7 12 -12z m201 -1 c13 -16 12 -17 -3 -4 -17 13 -22 21 -14 21 2 0 10
-8 17 -17z m-51 -4 c0 -5 -4 -7 -10 -4 -5 3 -10 1 -10 -6 0 -7 -3 -10 -6 -6
-8 7 4 27 17 27 5 0 9 -5 9 -11z m160 7 c0 -2 -8 -10 -17 -17 -16 -13 -17 -12
-4 4 13 16 21 21 21 13z m880 0 c0 -2 -8 -10 -17 -17 -16 -13 -17 -12 -4 4 13
16 21 21 21 13z m-945 -16 c-3 -5 -12 -10 -18 -10 -7 0 -6 4 3 10 19 12 23 12
15 0z m-51 -6 c9 -3 13 -11 9 -17 -4 -6 0 -8 9 -4 10 3 15 1 14 -8 -4 -27 -15
-28 -27 -2 -6 14 -19 28 -28 30 -9 3 -11 5 -4 6 6 0 18 -2 27 -5z m131 -4 c-3
-5 -12 -10 -18 -10 -7 0 -6 4 3 10 19 12 23 12 15 0z m345 -11 c0 -5 -4 -9 -8
-9 -5 0 -9 7 -9 15 0 8 4 12 9 9 4 -3 8 -9 8 -15z m963 2 c8 -8 5 -11 -12 -11
-12 0 -19 4 -16 10 9 15 -5 12 -22 -5 -11 -11 -19 -13 -27 -5 -7 5 -16 7 -19
3 -4 -3 -7 -1 -7 6 0 7 7 11 15 8 8 -4 17 -2 20 3 7 11 54 5 68 -9z m152 9 c3
-5 2 -10 -4 -10 -5 0 -13 5 -16 10 -3 6 -2 10 4 10 5 0 13 -4 16 -10z m-1294
-13 c-6 -8 -7 -18 -3 -22 4 -5 1 -5 -6 -1 -10 6 -10 11 -1 22 6 8 14 14 16 14
3 0 0 -6 -6 -13z m579 3 c0 -5 -5 -10 -11 -10 -5 0 -7 5 -4 10 3 6 8 10 11 10
2 0 4 -4 4 -10z m-1010 -6 c0 -8 -19 -13 -24 -6 -3 5 1 9 9 9 8 0 15 -2 15 -3z
m367 -24 c-1 -11 -7 -22 -14 -24 -9 -4 -10 0 -1 19 14 30 17 31 15 5z m197 8
c-3 -4 -11 -5 -19 -1 -21 7 -19 12 4 10 11 0 18 -5 15 -9z m253 -4 c-3 -3 -12
-4 -19 -1 -8 3 -5 6 6 6 11 1 17 -2 13 -5z m293 -8 c0 -3 -4 -8 -10 -11 -5 -3
-10 -1 -10 4 0 6 5 11 10 11 6 0 10 -2 10 -4z"/>
<path d="M1413 425 c0 -8 4 -12 9 -9 5 3 6 10 3 15 -9 13 -12 11 -12 -6z"/>
<path d="M1460 431 c0 -6 4 -13 10 -16 6 -3 7 1 4 9 -7 18 -14 21 -14 7z"/>
<path d="M1395 369 c-4 -6 -5 -12 -2 -15 2 -3 7 2 10 11 7 17 1 20 -8 4z"/>
<path d="M1434 336 c1 -9 5 -19 9 -23 5 -4 -2 -16 -15 -26 -22 -18 -22 -18 -1
-8 27 14 36 14 28 1 -3 -5 -1 -10 5 -10 7 0 10 7 7 14 -4 10 -1 13 8 9 8 -3
13 -8 11 -12 -3 -4 -1 -13 3 -20 6 -9 11 -10 15 -2 4 6 2 11 -4 11 -6 0 -8 4
-5 10 3 5 -5 15 -19 22 -22 9 -24 14 -14 27 7 9 8 13 4 9 -5 -4 -15 -3 -22 3
-9 7 -12 6 -10 -5z"/>
<path d="M1402 320 c-15 -25 -15 -30 0 -30 6 0 8 3 5 7 -4 3 -2 12 5 20 6 7 9
15 7 18 -3 2 -10 -5 -17 -15z"/>
<path d="M1680 320 c-13 -9 -13 -10 0 -10 13 0 13 -1 0 -10 -8 -5 -10 -10 -5
-10 6 0 17 5 25 10 11 7 11 10 2 10 -7 0 -10 5 -7 10 8 12 4 12 -15 0z"/>
<path d="M1436 257 c3 -10 9 -15 12 -12 3 3 0 11 -7 18 -10 9 -11 8 -5 -6z"/>
<path d="M1470 245 c0 -8 4 -15 10 -15 5 0 7 7 4 15 -4 8 -8 15 -10 15 -2 0
-4 -7 -4 -15z"/>
<path d="M1710 258 c0 -3 6 -11 14 -17 10 -9 17 -7 27 6 12 16 12 17 -2 6 -12
-10 -18 -10 -27 -1 -7 7 -12 9 -12 6z"/>
<path d="M1545 240 c3 -5 8 -10 11 -10 2 0 4 5 4 10 0 6 -5 10 -11 10 -5 0 -7
-4 -4 -10z"/>
<path d="M3553 435 c4 -5 0 -16 -9 -26 -23 -25 0 -33 27 -9 19 16 20 19 5 13
-13 -4 -17 -3 -12 5 3 6 1 14 -6 18 -7 4 -10 3 -5 -1z"/>
<path d="M3590 380 c0 -5 5 -10 10 -10 6 0 10 5 10 10 0 6 -4 10 -10 10 -5 0
-10 -4 -10 -10z"/>
<path d="M3570 369 c0 -5 -4 -7 -10 -4 -6 4 -7 -1 -3 -11 4 -11 8 -13 11 -6 2
7 8 10 13 7 5 -4 6 1 3 9 -7 18 -14 21 -14 5z"/>
<path d="M1595 440 c-3 -5 -1 -10 4 -10 6 0 11 5 11 10 0 6 -2 10 -4 10 -3 0
-8 -4 -11 -10z"/>
<path d="M1675 420 c3 -16 0 -20 -11 -16 -9 3 -18 6 -20 6 -3 0 -3 4 0 8 3 5
-2 9 -11 9 -12 0 -10 -5 8 -19 13 -10 30 -23 36 -28 7 -6 16 -10 19 -9 4 0 10
-5 14 -11 5 -9 9 -9 14 -1 4 6 2 11 -4 11 -6 0 -9 4 -5 9 3 5 0 13 -6 17 -7 4
-9 3 -5 -4 3 -6 2 -13 -4 -17 -10 -6 -11 -3 -14 34 0 11 -4 23 -8 27 -4 3 -5
-3 -3 -16z"/>
<path d="M1591 406 c-9 -10 -9 -16 -1 -21 6 -4 14 -4 17 -1 4 3 0 6 -8 6 -12
0 -12 2 1 10 8 5 12 12 9 15 -4 3 -12 -1 -18 -9z"/>
<path d="M1637 376 c-4 -9 -3 -15 2 -11 5 3 11 0 13 -7 3 -7 7 -5 11 6 4 9 3
15 -2 11 -5 -3 -11 0 -13 7 -3 7 -7 5 -11 -6z"/>
<path d="M3513 359 c3 -9 1 -21 -5 -27 -12 -12 -3 -32 15 -32 8 0 8 3 -1 12
-7 7 -8 16 -2 23 5 6 5 16 -2 25 -8 13 -9 12 -5 -1z"/>
<path d="M3414 248 c-3 -5 -3 -12 0 -15 3 -4 6 0 6 8 0 11 2 11 10 -1 9 -13
10 -13 10 0 0 13 1 13 11 0 8 -12 10 -12 7 -1 -5 17 -35 23 -44 9z"/>
<path d="M1635 281 c-3 -5 -2 -12 3 -15 5 -3 9 1 9 9 0 17 -3 19 -12 6z"/>
<path d="M1716 178 c3 -5 10 -6 15 -3 13 9 11 12 -6 12 -8 0 -12 -4 -9 -9z"/>
<path d="M3735 380 c-3 -5 -1 -10 4 -10 6 0 11 5 11 10 0 6 -2 10 -4 10 -3 0
-8 -4 -11 -10z"/>
<path d="M3833 375 c0 -8 4 -12 9 -9 5 3 6 10 3 15 -9 13 -12 11 -12 -6z"/>
<path d="M3795 369 c-4 -6 -5 -12 -2 -15 2 -3 7 2 10 11 7 17 1 20 -8 4z"/>
<path d="M3715 363 c3 -3 0 -11 -5 -18 -7 -8 -5 -12 4 -12 14 0 16 22 3 32 -4
3 -5 2 -2 -2z"/>
<path d="M3670 351 c0 -6 4 -13 10 -16 6 -3 7 1 4 9 -7 18 -14 21 -14 7z"/>
<path d="M1155 320 c-3 -5 -1 -10 4 -10 6 0 11 5 11 10 0 6 -2 10 -4 10 -3 0
-8 -4 -11 -10z"/>
<path d="M3657 323 c-4 -6 0 -13 8 -17 8 -3 17 0 21 6 4 6 3 8 -4 4 -5 -3 -12
-1 -14 6 -3 8 -6 9 -11 1z"/>
<path d="M1260 291 c0 -6 4 -13 10 -16 6 -3 7 1 4 9 -7 18 -14 21 -14 7z"/>
<path d="M3770 279 c0 -5 5 -7 10 -4 6 3 10 8 10 11 0 2 -4 4 -10 4 -5 0 -10
-5 -10 -11z"/>
<path d="M1236 262 c-3 -5 1 -9 9 -9 8 0 12 4 9 9 -3 4 -7 8 -9 8 -2 0 -6 -4
-9 -8z"/>
<path d="M3695 250 c-3 -5 -11 -8 -18 -6 -7 1 -9 1 -4 -1 4 -3 4 -10 0 -16 -3
-7 3 -3 15 7 12 11 22 21 22 23 0 6 -9 3 -15 -7z"/>
<path d="M1236 222 c-3 -5 1 -9 9 -9 8 0 12 4 9 9 -3 4 -7 8 -9 8 -2 0 -6 -4
-9 -8z"/>
<path d="M3775 219 c-3 -4 2 -6 10 -5 21 3 28 13 10 13 -9 0 -18 -4 -20 -8z"/>
<path d="M3709 203 c-13 -16 -12 -17 4 -4 16 13 21 21 13 21 -2 0 -10 -8 -17
-17z"/>
<path d="M1253 185 c0 -8 4 -12 9 -9 5 3 6 10 3 15 -9 13 -12 11 -12 -6z"/>
<path d="M1296 191 c-4 -5 3 -7 14 -4 23 6 26 13 6 13 -8 0 -17 -4 -20 -9z"/>
<path d="M1336 175 c-9 -26 -7 -32 5 -12 6 10 9 21 6 23 -2 3 -7 -2 -11 -11z"/>
<path d="M1365 180 c-3 -6 1 -7 9 -4 18 7 21 14 7 14 -6 0 -13 -4 -16 -10z"/>
<path d="M1582 170 c7 -11 18 -20 25 -20 8 0 5 8 -7 20 -11 11 -22 20 -25 20
-3 0 0 -9 7 -20z"/>
<path d="M1826 181 c-3 -5 2 -8 12 -7 11 0 17 -6 18 -19 0 -27 14 -55 26 -55
6 0 5 6 -2 15 -10 11 -10 18 -1 29 10 11 7 17 -11 30 -26 18 -35 20 -42 7z"/>
<path d="M3590 180 c0 -5 5 -10 10 -10 6 0 10 5 10 10 0 6 -4 10 -10 10 -5 0
-10 -4 -10 -10z"/>
<path d="M1435 171 c-3 -5 -2 -12 3 -15 5 -3 9 1 9 9 0 17 -3 19 -12 6z"/>
<path d="M1460 176 c0 -2 7 -7 16 -10 8 -3 12 -2 9 4 -6 10 -25 14 -25 6z"/>
<path d="M1396 158 c3 -5 10 -6 15 -3 13 9 11 12 -6 12 -8 0 -12 -4 -9 -9z"/>
<path d="M1530 160 c0 -5 5 -10 10 -10 6 0 10 5 10 10 0 6 -4 10 -10 10 -5 0
-10 -4 -10 -10z"/>
<path d="M1560 163 c0 -6 8 -17 18 -24 16 -13 16 -13 2 6 -8 11 -16 22 -17 24
-2 2 -3 0 -3 -6z"/>
<path d="M1420 146 c0 -2 8 -10 18 -17 15 -13 16 -12 3 4 -13 16 -21 21 -21
13z"/>
<path d="M1468 143 c6 -2 18 -2 25 0 6 3 1 5 -13 5 -14 0 -19 -2 -12 -5z"/>
<path d="M1675 120 c3 -5 8 -10 11 -10 2 0 4 5 4 10 0 6 -5 10 -11 10 -5 0 -7
-4 -4 -10z"/>
<path d="M2024 120 c2 -16 20 -14 24 2 3 10 2 10 -6 -1 -7 -9 -11 -10 -15 -2
-4 7 -5 8 -3 1z"/>
<path d="M3005 120 c-3 -5 -1 -10 4 -10 6 0 11 5 11 10 0 6 -2 10 -4 10 -3 0
-8 -4 -11 -10z"/>
<path d="M3047 115 c-16 -11 -16 -13 -2 -19 9 -3 14 -2 10 3 -3 5 1 11 7 14 7
2 11 7 8 10 -3 3 -13 0 -23 -8z"/>
<path d="M2557 113 c-13 -12 -7 -22 10 -16 12 5 14 3 8 -7 -5 -9 -4 -11 3 -6
7 4 12 3 12 -3 0 -10 34 -8 63 4 12 5 17 2 17 -8 0 -21 17 -31 26 -16 4 7 3 9
-4 5 -17 -10 -19 28 -2 41 25 20 -10 11 -40 -10 -28 -20 -44 -22 -34 -5 5 7 3
8 -5 4 -7 -5 -20 -1 -30 8 -10 9 -21 13 -24 9z"/>
<path d="M2270 101 c0 -3 4 -12 9 -19 6 -11 9 -9 13 5 3 12 0 20 -8 20 -8 0
-14 -3 -14 -6z"/>
<path d="M2051 84 c0 -11 3 -14 6 -6 3 7 2 16 -1 19 -3 4 -6 -2 -5 -13z"/>
<path d="M2406 87 c3 -10 12 -16 18 -14 43 18 46 19 43 6 -2 -8 -2 -10 1 -6 2
4 10 3 17 -3 10 -9 13 -7 11 6 -3 20 -32 27 -56 14 -11 -6 -21 -5 -29 3 -10 9
-11 8 -5 -6z"/>
<path d="M3011 84 c0 -11 3 -14 6 -6 3 7 2 16 -1 19 -3 4 -6 -2 -5 -13z"/>
<path d="M2095 80 c3 -5 8 -10 11 -10 2 0 4 5 4 10 0 6 -5 10 -11 10 -5 0 -7
-4 -4 -10z"/>
<path d="M2945 80 c3 -5 8 -10 11 -10 2 0 4 5 4 10 0 6 -5 10 -11 10 -5 0 -7
-4 -4 -10z"/>
<path d="M2173 65 c0 -8 4 -12 9 -9 5 3 6 10 3 15 -9 13 -12 11 -12 -6z"/>
<path d="M2547 67 c-3 -7 5 -12 19 -12 29 0 29 1 5 14 -14 8 -20 7 -24 -2z"/>
<path d="M2396 38 c3 -5 10 -6 15 -3 13 9 11 12 -6 12 -8 0 -12 -4 -9 -9z"/>
</g>
</svg>
